<?xml version="1.0" encoding="UTF-8"?> <svg xmlns="http://www.w3.org/2000/svg" xmlns:xlink="http://www.w3.org/1999/xlink" version="1.1" id="Layer_1" x="0px" y="0px" viewBox="0 0 80 80" style="enable-background:new 0 0 80 80;" xml:space="preserve"> <style type="text/css"> .st0{fill:#FFFFFF;fill-opacity:0;} .st1{fill:#0079BE;} .st2{fill:#FFFFFF;} </style> <g id="bkash" transform="translate(-2471 2031)"> <rect id="Rectangle_92" x="2481" y="-2021" class="st0" width="60" height="60"></rect> <path class="st1" d="M2516.2-1967.2c13,0.1,24.8-10.6,24.8-23.6c0-14.2-11.9-24-24.8-24H2505c-13.1,0-24,9.8-24,24 c0,13,10.8,23.6,24,23.6H2516.2z"></path> <path class="st2" d="M2505-2012.8c-12,0-21.7,9.7-21.8,21.8c0,12,9.7,21.8,21.8,21.8c12,0,21.8-9.7,21.8-21.8 C2526.8-2003.1,2517-2012.8,2505-2012.8z M2491.2-1991L2491.2-1991c0-5.9,3.7-10.9,8.9-12.9v25.7 C2494.9-1980.2,2491.2-1985.2,2491.2-1991z M2510-1978.2L2510-1978.2v-25.7c5.2,2,8.8,7,8.9,12.9 C2518.8-1985.2,2515.1-1980.2,2510-1978.2z"></path> <path class="st1" d="M2516.2-1967.2c13,0.1,24.8-10.6,24.8-23.6c0-14.2-11.9-24-24.8-24H2505c-13.1,0-24,9.8-24,24 c0,13,10.8,23.6,24,23.6H2516.2z"></path> <path class="st2" d="M2505-2012.8c-12,0-21.7,9.7-21.8,21.8c0,12,9.7,21.8,21.8,21.8c12,0,21.8-9.7,21.8-21.8 C2526.8-2003.1,2517-2012.8,2505-2012.8z M2491.2-1991L2491.2-1991c0-5.9,3.7-10.9,8.9-12.9v25.7 C2494.9-1980.2,2491.2-1985.2,2491.2-1991z M2510-1978.2L2510-1978.2v-25.7c5.2,2,8.8,7,8.9,12.9 C2518.8-1985.2,2515.1-1980.2,2510-1978.2z"></path> </g> </svg> 