<?xml version="1.0" encoding="UTF-8"?> <svg xmlns="http://www.w3.org/2000/svg" xmlns:xlink="http://www.w3.org/1999/xlink" version="1.1" id="Layer_1" x="0px" y="0px" viewBox="0 0 80 80" style="enable-background:new 0 0 80 80;" xml:space="preserve"> <style type="text/css"> .st0{fill:#ED1D23;} .st1{fill:#FFFFFF;} </style> <g> <path class="st0" d="M70,38.5c0,1,0,2,0,2.9c0,0.1,0,0.1-0.1,0.2c0,0.6-0.1,1.1-0.1,1.7c-0.1,0.8-0.2,1.6-0.3,2.3 c-0.2,1.3-0.6,2.6-1,3.9c-0.3,0.8-0.6,1.6-0.9,2.4c-0.5,1.1-1.1,2.3-1.7,3.4c-0.6,1.1-1.3,2.2-2.2,3.2c-0.6,0.8-1.3,1.6-1.9,2.3 c-0.8,0.8-1.7,1.6-2.6,2.4c-0.7,0.6-1.5,1.2-2.2,1.7c-1.4,1-2.9,1.9-4.5,2.6c-0.8,0.4-1.7,0.7-2.5,1c-1.4,0.5-2.8,0.9-4.3,1.1 c-1.2,0.2-2.3,0.4-3.5,0.4c0,0-0.1,0-0.1,0.1c-1.3,0-2.6,0-4,0c-0.1,0-0.1,0-0.2-0.1c-0.5,0-1.1-0.1-1.6-0.1 c-0.6-0.1-1.3-0.2-1.9-0.3c-1.1-0.3-2.2-0.5-3.3-0.8c-1.7-0.5-3.4-1.2-4.9-2c-0.7-0.4-1.4-0.8-2.1-1.2c-0.9-0.6-1.7-1.1-2.5-1.8 c-0.7-0.5-1.4-1.1-2.1-1.7c-0.9-0.8-1.8-1.7-2.5-2.7c-0.5-0.6-1-1.3-1.5-1.9c-1-1.4-1.9-2.9-2.6-4.5c-0.4-0.9-0.8-1.8-1.1-2.7 c-0.7-1.9-1.2-3.8-1.4-5.8c-0.1-0.9-0.2-1.7-0.3-2.6c0-0.1,0-0.1-0.1-0.2c0-1.1,0-2.3,0-3.4c0-0.1,0-0.1,0.1-0.2 c0-0.6,0.1-1.2,0.1-1.8c0.1-0.7,0.2-1.5,0.4-2.2c0.2-1.1,0.5-2.1,0.8-3.1c0.3-1,0.7-1.9,1.1-2.8c0.5-1.1,1-2.2,1.6-3.2 c0.7-1.2,1.4-2.4,2.3-3.4c0.7-0.8,1.3-1.6,2.1-2.4c0.7-0.7,1.4-1.3,2.1-2c0.6-0.5,1.2-1,1.8-1.5c1.2-0.9,2.5-1.7,3.8-2.4 c1-0.5,2.1-1,3.2-1.4c1-0.4,1.9-0.7,2.9-1c1.2-0.3,2.4-0.6,3.7-0.7c0.7-0.1,1.5-0.1,2.2-0.2c0.1,0,0.1,0,0.2-0.1c1.1,0,2.3,0,3.4,0 c0.1,0,0.1,0,0.2,0.1c0.5,0,0.9,0,1.4,0.1c0.8,0.1,1.5,0.2,2.3,0.4c1.3,0.2,2.5,0.5,3.7,0.9c0.9,0.3,1.8,0.6,2.6,1 c1.1,0.5,2.2,1,3.2,1.6c1.2,0.7,2.3,1.4,3.3,2.3c0.9,0.7,1.7,1.4,2.6,2.2c0.7,0.7,1.4,1.4,2,2.2c0.6,0.7,1.2,1.5,1.8,2.3 c1,1.4,1.8,2.8,2.5,4.4c0.4,0.8,0.7,1.6,1,2.4c0.7,1.9,1.2,3.9,1.5,6c0.1,0.9,0.2,1.8,0.3,2.7C70,38.4,70,38.5,70,38.5z M39.2,47.9 c0.1,0,0.2,0,0.3,0c2,0,4.1,0,6.1,0c0.3,0,0.6,0,0.9,0c0.9-0.1,1.7-0.3,2.5-0.7c0.2-0.1,0.4-0.3,0.6-0.5c0.2-0.2,0.4-0.5,0.6-0.8 c1-1.5,2-2.9,3.1-4.4c0.6-0.9,1.2-1.8,1.9-2.7c0.9-1.2,1.7-2.5,2.6-3.7c0.7-1,1.4-2.1,2.2-3.1c0.9-1.3,1.8-2.6,2.7-3.9 c0.4-0.6,0.9-1.1,1-1.9c0-0.5,0.1-1.1-0.2-1.6c-0.4-0.8-1-1.2-1.8-1.5c-0.9-0.3-1.9-0.4-2.9-0.4c-0.3,0-0.7,0-1,0 c-7.3,0-14.7,0-22,0c-0.7,0-1.4-0.1-2.1,0c-0.7,0-1.4,0-2.1,0.1c-1.1,0.2-2.1,0.5-3,1c-0.8,0.5-1.5,1-2.1,1.7 c-0.7,0.9-1.3,1.8-2,2.7c-0.6,0.8-1.1,1.6-1.7,2.4c-0.9,1.3-1.8,2.6-2.8,3.9c-0.5,0.7-1,1.5-1.6,2.2c-0.9,1.3-1.8,2.5-2.7,3.8 c-0.5,0.6-0.9,1.3-1.4,1.9c-0.5,0.7-0.9,1.4-1.1,2.2c-0.2,0.8,0,1.6,0.6,2.1c0.3,0.3,0.7,0.5,1.1,0.7c0.7,0.3,1.4,0.5,2.1,0.5 c5.7,0,11.5,0,17.2,0c0.2,0,0.3,0.1,0.4,0.2c0.4,0.7,0.7,1.5,1.1,2.2c0.1,0.1,0.1,0.2,0.3,0.2c1.5,0,3,0,4.4,0c0.1,0,0.1,0,0.2,0 C40.1,49.7,39.7,48.8,39.2,47.9z M32.5,57.6c0.1,0,0.2,0,0.3,0c1.7,0,3.3,0,5,0c0.1,0,0.1,0,0.2,0c0.1,0,0.2,0.1,0.2,0.1 c0,0,0,0.1-0.1,0.2c0,0.1-0.1,0.2-0.2,0.3c-0.1,0.1-0.2,0.2-0.4,0.2c-1.7,0-3.3,0-5,0c-0.3,0-0.6,0.1-0.8,0.4 c-0.3,0.4-0.6,0.8-0.9,1.2c-0.2,0.3-0.1,0.6,0.2,0.7C31.5,61,32,61,32.4,61c1.1,0,2.3,0,3.4,0c0.6,0,1.2-0.1,1.8-0.2 c0.3-0.1,0.7-0.3,0.9-0.6c0.6-0.8,1.1-1.6,1.7-2.4c0.2-0.3,0.2-0.5-0.1-0.7c-0.4-0.3-0.9-0.3-1.4-0.4c-1.8,0-3.6,0-5.4,0 c-0.1,0-0.1,0-0.2,0C32.9,57.1,32.7,57.3,32.5,57.6z M53.7,55.1c-0.7,0-1.3,0-1.8,0c-0.1,0-0.1,0-0.2,0.1c-0.8,1.1-1.5,2.2-2.3,3.2 c-0.5,0.7-1,1.4-1.5,2c-0.1,0.2-0.2,0.3-0.4,0.5c0.7,0,1.3,0,1.9,0c0.1,0,0.1,0,0.2-0.1c0.6-0.9,1.3-1.7,1.8-2.6 c0.3-0.5,0.7-0.7,1.3-0.7c0.6,0,1.3,0,1.9,0c0.2,0,0.4,0,0.6,0c0.1,0,0.2,0.1,0.3,0.1c0,0,0,0.1,0,0.1c-0.4,0.6-0.8,1.1-1.3,1.7 c-0.3,0.4-0.6,0.9-0.9,1.3c0,0,0,0,0,0c0.6,0,1.3,0,1.9,0c0.1,0,0.1-0.1,0.1-0.1c0.7-1,1.4-2.1,2.2-3.1c0.1-0.2,0.1-0.4-0.1-0.5 c-0.1-0.1-0.2-0.2-0.4-0.2c-0.4-0.2-0.9-0.2-1.3-0.2c-1,0-2,0-3,0c-0.1,0-0.2,0-0.3,0C52.9,56.2,53.3,55.7,53.7,55.1z M42.6,58.4 c0.1-0.1,0.1-0.1,0.1-0.1c0,0,0-0.1,0.1-0.1c0.3-0.4,0.7-0.6,1.2-0.6c1.6,0,3.2,0,4.8,0c0.1,0,0.2,0,0.2,0c0.2-0.3,0.3-0.5,0.5-0.8 c-0.1,0-0.2,0-0.2,0c-0.7,0-1.4,0-2.1,0c-1.5,0-3.1,0-4.6,0.1c-0.3,0-0.7,0.1-0.9,0.4c-0.4,0.5-0.8,1-1.1,1.6 c-0.2,0.3,0,0.5,0.4,0.5c1.5,0,3,0,4.4,0c0.2,0,0.3,0,0.5,0c-0.4,0.6-0.6,0.9-1.4,0.8c-1.4,0-2.9,0-4.3,0c-0.4,0-0.7,0.1-0.9,0.4 c-0.1,0.1-0.2,0.3-0.4,0.4c0.4,0,0.8,0.1,1.1,0.1c1.4,0,2.9,0,4.3,0c0.4,0,0.9,0,1.3-0.1c0.8-0.1,1.4-0.4,1.8-1.1 c0.1-0.3,0.3-0.5,0.5-0.8c0.1-0.2,0-0.4-0.2-0.5c-0.1,0-0.2-0.1-0.3-0.1c-1,0-2,0-3.1,0C43.7,58.4,43.2,58.4,42.6,58.4z M32.2,56.8 c-0.2,0-0.4,0-0.6,0c-1.9,0-3.9,0-5.8,0c-0.3,0-0.6,0-0.8,0.1c-0.3,0.1-0.6,0.2-0.8,0.4c-0.7,0.9-1.3,1.8-1.9,2.7 c-0.3,0.4-0.1,0.8,0.3,0.9c0.4,0.1,0.7,0.2,1.1,0.2c1.9,0,3.8,0,5.6,0c0.1,0,0.1,0,0.1,0c0.2-0.3,0.4-0.5,0.6-0.8 c-0.1,0-0.2,0-0.3,0c-1.6,0-3.1,0-4.7,0c-0.2,0-0.4,0-0.6,0c-0.2,0-0.3-0.2-0.1-0.3c0.4-0.5,0.7-1,1.1-1.5c0.3-0.4,0.6-0.6,1.2-0.6 c1.6,0,3.2,0,4.8,0c0.1,0,0.2,0,0.3-0.2C31.9,57.3,32,57,32.2,56.8z"></path> <path class="st0" d="M37.6,44.5c-0.5-1.1-1-2.2-1.5-3.3c0-0.1-0.1-0.1-0.2-0.1c-1.5,0-3.1,0-4.6,0c0,0-0.1,0-0.1,0 c0.6,1.1,1.1,2.2,1.7,3.4c-0.1,0-0.2,0-0.3,0c-3,0-5.9,0-8.9,0c-0.4,0-0.7,0-1.1,0c-0.3,0-0.6-0.1-0.6-0.5c0-0.2,0.1-0.5,0.2-0.7 c0.5-0.8,1.1-1.6,1.7-2.4c0.5-0.7,1.1-1.5,1.6-2.2c0.9-1.2,1.7-2.4,2.6-3.6c0.7-0.9,1.3-1.9,2-2.8c0.8-1.1,1.6-2.3,2.5-3.4 c0.2-0.3,0.4-0.6,0.6-0.9c0.6-0.7,1.2-1.2,2.1-1.4c0.7-0.2,1.4-0.3,2.1-0.3c5,0,10,0,15,0c0.5,0,0.9,0.1,1.4,0.2 c0.4,0.1,0.6,0.4,0.6,0.8c0,0.3-0.1,0.6-0.2,0.8c-0.5,0.8-1,1.6-1.5,2.4c-0.9,1.3-1.7,2.5-2.6,3.8c-0.8,1.2-1.6,2.4-2.5,3.5 c-1,1.4-1.9,2.8-2.9,4.2c-0.3,0.4-0.6,0.9-0.9,1.3c-0.4,0.5-1,0.9-1.6,1.1c-0.4,0.1-0.8,0.2-1.2,0.2C39.8,44.5,38.7,44.5,37.6,44.5 z"></path> <path class="st0" d="M37.2,59.3c-0.2,0.3-0.4,0.6-0.7,0.7c-0.2,0.1-0.3,0.1-0.5,0.1c-0.8,0-1.6,0-2.4,0c-0.2,0-0.4,0-0.5-0.1 c-0.1,0-0.2-0.1-0.1-0.2c0.1-0.1,0.2-0.3,0.3-0.4c0-0.1,0.2-0.1,0.2-0.1c1,0,1.9,0,2.9,0C36.6,59.3,36.9,59.3,37.2,59.3z"></path> <path d="M39.6,48.9c0.5,0.9,0.9,1.8,1.4,2.7c-0.1,0-0.1,0-0.2,0c-1.5,0-3,0-4.4,0c-0.2,0-0.2-0.1-0.3-0.2c-0.4-0.7-0.7-1.5-1.1-2.2 c-0.1-0.2-0.2-0.2-0.4-0.2c-5.7,0-11.5,0-17.2,0c-0.7,0-1.5-0.2-2.1-0.5c-0.4-0.2-0.8-0.4-1.1-0.7c-0.6-0.6-0.8-1.3-0.6-2.1 c0.2-0.8,0.6-1.5,1.1-2.2c0.5-0.6,0.9-1.3,1.4-1.9c0.9-1.2,1.8-2.5,2.7-3.8c0.5-0.7,1-1.5,1.6-2.2c0.9-1.3,1.8-2.6,2.8-3.9 c0.6-0.8,1.1-1.6,1.7-2.4c0.7-0.9,1.3-1.8,2-2.7c0.6-0.7,1.3-1.3,2.1-1.7c0.9-0.5,1.9-0.9,3-1c0.7-0.1,1.4-0.1,2.1-0.1 c0.7,0,1.4,0,2.1,0c7.3,0,14.7,0,22,0c0.4,0,0.7-0.1,1,0c1,0.1,1.9,0.1,2.9,0.4c0.8,0.3,1.4,0.7,1.8,1.5c0.2,0.5,0.2,1,0.2,1.6 c-0.1,0.8-0.6,1.3-1,1.9c-0.9,1.3-1.8,2.6-2.7,3.9c-0.7,1-1.4,2.1-2.2,3.1c-0.9,1.2-1.7,2.5-2.6,3.7c-0.6,0.9-1.2,1.8-1.9,2.7 c-1,1.5-2,2.9-3.1,4.4c-0.2,0.3-0.3,0.6-0.6,0.8c-0.2,0.2-0.4,0.3-0.6,0.5c-0.8,0.4-1.6,0.7-2.5,0.7c-0.3,0-0.6,0-0.9,0 c-2,0-4.1,0-6.1,0C39.8,48.9,39.7,48.9,39.6,48.9z M37.9,45.4c1.1,0,2.2,0,3.4,0c0.4,0,0.8-0.1,1.2-0.2c0.6-0.2,1.2-0.6,1.6-1.1 c0.4-0.4,0.6-0.9,0.9-1.3c1-1.4,1.9-2.8,2.9-4.2c0.8-1.2,1.6-2.4,2.5-3.5c0.9-1.3,1.8-2.5,2.6-3.8c0.5-0.8,1-1.6,1.5-2.4 c0.1-0.2,0.2-0.5,0.2-0.8c0-0.4-0.3-0.7-0.6-0.8c-0.5-0.1-0.9-0.2-1.4-0.2c-5,0-10,0-15,0c-0.7,0-1.4,0.1-2.1,0.3 c-0.9,0.2-1.5,0.8-2.1,1.4c-0.2,0.3-0.4,0.6-0.6,0.9c-0.8,1.1-1.7,2.3-2.5,3.4c-0.7,0.9-1.3,1.9-2,2.8c-0.9,1.2-1.7,2.4-2.6,3.6 c-0.5,0.7-1.1,1.5-1.6,2.2c-0.6,0.8-1.2,1.6-1.7,2.4c-0.1,0.2-0.2,0.5-0.2,0.7c0,0.3,0.3,0.4,0.6,0.5c0.4,0,0.7,0,1.1,0 c3,0,5.9,0,8.9,0c0.1,0,0.2,0,0.3,0c-0.6-1.2-1.1-2.3-1.7-3.4c0.1,0,0.1,0,0.1,0c1.5,0,3.1,0,4.6,0c0.1,0,0.2,0.1,0.2,0.1 C36.9,43.2,37.4,44.3,37.9,45.4z"></path> <path class="st1" d="M39.2,47.9c0.5,0.9,0.9,1.8,1.4,2.7c-0.1,0-0.1,0-0.2,0c-1.5,0-3,0-4.4,0c-0.2,0-0.2-0.1-0.3-0.2 c-0.4-0.7-0.7-1.5-1.1-2.2C34.5,48,34.4,48,34.2,48c-5.7,0-11.5,0-17.2,0c-0.7,0-1.5-0.2-2.1-0.5c-0.4-0.2-0.8-0.4-1.1-0.7 c-0.6-0.6-0.8-1.3-0.6-2.1c0.2-0.8,0.6-1.5,1.1-2.2c0.5-0.6,0.9-1.3,1.4-1.9c0.9-1.2,1.8-2.5,2.7-3.8c0.5-0.7,1-1.5,1.6-2.2 c0.9-1.3,1.8-2.6,2.8-3.9c0.6-0.8,1.1-1.6,1.7-2.4c0.7-0.9,1.3-1.8,2-2.7c0.6-0.7,1.3-1.3,2.1-1.7c0.9-0.5,1.9-0.9,3-1 c0.7-0.1,1.4-0.1,2.1-0.1c0.7,0,1.4,0,2.1,0c7.3,0,14.7,0,22,0c0.4,0,0.7-0.1,1,0c1,0.1,1.9,0.1,2.9,0.4c0.8,0.3,1.4,0.7,1.8,1.5 c0.2,0.5,0.2,1,0.2,1.6c-0.1,0.8-0.6,1.3-1,1.9c-0.9,1.3-1.8,2.6-2.7,3.9c-0.7,1-1.4,2.1-2.2,3.1c-0.9,1.2-1.7,2.5-2.6,3.7 c-0.6,0.9-1.2,1.8-1.9,2.7c-1,1.5-2,2.9-3.1,4.4c-0.2,0.3-0.3,0.6-0.6,0.8c-0.2,0.2-0.4,0.3-0.6,0.5c-0.8,0.4-1.6,0.7-2.5,0.7 c-0.3,0-0.6,0-0.9,0c-2,0-4.1,0-6.1,0C39.4,47.9,39.3,47.9,39.2,47.9z M37.6,44.5c1.1,0,2.2,0,3.4,0c0.4,0,0.8-0.1,1.2-0.2 c0.6-0.2,1.2-0.6,1.6-1.1c0.4-0.4,0.6-0.9,0.9-1.3c1-1.4,1.9-2.8,2.9-4.2c0.8-1.2,1.6-2.4,2.5-3.5c0.9-1.3,1.8-2.5,2.6-3.8 c0.5-0.8,1-1.6,1.5-2.4c0.1-0.2,0.2-0.5,0.2-0.8c0-0.4-0.3-0.7-0.6-0.8c-0.5-0.1-0.9-0.2-1.4-0.2c-5,0-10,0-15,0 c-0.7,0-1.4,0.1-2.1,0.3c-0.9,0.2-1.5,0.8-2.1,1.4c-0.2,0.3-0.4,0.6-0.6,0.9c-0.8,1.1-1.7,2.3-2.5,3.4c-0.7,0.9-1.3,1.9-2,2.8 c-0.9,1.2-1.7,2.4-2.6,3.6c-0.5,0.7-1.1,1.5-1.6,2.2c-0.6,0.8-1.2,1.6-1.7,2.4c-0.1,0.2-0.2,0.5-0.2,0.7c0,0.3,0.3,0.4,0.6,0.5 c0.4,0,0.7,0,1.1,0c3,0,5.9,0,8.9,0c0.1,0,0.2,0,0.3,0c-0.6-1.2-1.1-2.3-1.7-3.4c0.1,0,0.1,0,0.1,0c1.5,0,3.1,0,4.6,0 c0.1,0,0.2,0.1,0.2,0.1C36.6,42.3,37.1,43.4,37.6,44.5z"></path> <g> <path d="M32.1,57.4c0.2-0.3,0.4-0.6,0.6-0.8c0,0,0.1,0,0.2,0c1.8,0,3.6,0,5.4,0c0.5,0,1,0.1,1.4,0.4c0.3,0.2,0.3,0.4,0.1,0.7 c-0.6,0.8-1.1,1.6-1.7,2.4c-0.2,0.3-0.5,0.5-0.9,0.6c-0.6,0.2-1.2,0.2-1.8,0.2c-1.1,0-2.3,0-3.4,0c-0.5,0-0.9,0-1.4-0.2 c-0.3-0.1-0.4-0.4-0.2-0.7c0.3-0.4,0.6-0.8,0.9-1.2c0.2-0.3,0.5-0.4,0.8-0.4c1.7,0,3.3,0,5,0c0.2,0,0.3-0.1,0.4-0.2 c0.1-0.1,0.1-0.2,0.2-0.3c0-0.1,0.1-0.2,0.1-0.2c0-0.1-0.1-0.1-0.2-0.1c0,0-0.1,0-0.2,0c-1.7,0-3.3,0-5,0 C32.3,57.4,32.2,57.4,32.1,57.4z M36.8,59.1c-0.3,0-0.5,0-0.8,0c-1,0-1.9,0-2.9,0c-0.1,0-0.2,0-0.2,0.1c-0.1,0.1-0.2,0.3-0.3,0.4 c-0.1,0.1-0.1,0.2,0.1,0.2c0.2,0,0.4,0.1,0.5,0.1c0.8,0,1.6,0,2.4,0c0.2,0,0.3-0.1,0.5-0.1C36.4,59.7,36.5,59.4,36.8,59.1z"></path> <path d="M53.3,54.9c-0.4,0.6-0.8,1.1-1.2,1.7c0.1,0,0.2,0,0.3,0c1,0,2,0,3,0c0.5,0,0.9,0,1.3,0.2c0.1,0.1,0.3,0.1,0.4,0.2 c0.2,0.1,0.2,0.3,0.1,0.5c-0.7,1-1.4,2.1-2.2,3.1c0,0-0.1,0.1-0.1,0.1c-0.6,0-1.3,0-1.9,0c0,0,0,0,0,0c0.3-0.4,0.6-0.9,0.9-1.3 c0.4-0.6,0.8-1.1,1.3-1.7c0,0,0-0.1,0-0.1c-0.1-0.1-0.2-0.1-0.3-0.1c-0.2,0-0.4,0-0.6,0c-0.6,0-1.3,0-1.9,0c-0.6,0-1,0.2-1.3,0.7 c-0.6,0.9-1.2,1.7-1.8,2.6c0,0-0.1,0.1-0.2,0.1c-0.6,0-1.2,0-1.9,0c0.1-0.2,0.2-0.3,0.4-0.5c0.5-0.7,1-1.4,1.5-2 c0.8-1.1,1.5-2.2,2.3-3.2c0,0,0.1-0.1,0.2-0.1C52,54.9,52.6,54.9,53.3,54.9z"></path> <path d="M42.2,58.2c0.6,0,1.1,0,1.7,0c1,0,2,0,3.1,0c0.1,0,0.2,0,0.3,0.1c0.2,0.1,0.3,0.3,0.2,0.5c-0.1,0.3-0.3,0.5-0.5,0.8 c-0.4,0.8-1,1-1.8,1.1c-0.4,0-0.9,0.1-1.3,0.1c-1.4,0-2.9,0-4.3,0c-0.4,0-0.7,0-1.1-0.1c0.1-0.2,0.3-0.3,0.4-0.4 c0.2-0.3,0.5-0.4,0.9-0.4c1.4,0,2.9,0,4.3,0c0.8,0,1-0.2,1.4-0.8c-0.2,0-0.3,0-0.5,0c-1.5,0-3,0-4.4,0c-0.3,0-0.5-0.3-0.4-0.5 c0.3-0.5,0.7-1.1,1.1-1.6c0.2-0.3,0.6-0.4,0.9-0.4c1.5,0,3.1,0,4.6-0.1c0.7,0,1.4,0,2.1,0c0.1,0,0.1,0,0.2,0 c-0.2,0.3-0.4,0.6-0.5,0.8c0,0-0.2,0-0.2,0c-1.6,0-3.2,0-4.8,0c-0.5,0-0.9,0.2-1.2,0.6c0,0,0,0.1-0.1,0.1 C42.3,58.2,42.3,58.2,42.2,58.2z"></path> <path d="M31.8,56.6c-0.2,0.3-0.3,0.5-0.4,0.7c-0.1,0.1-0.2,0.2-0.3,0.2c-1.6,0-3.2,0-4.8,0c-0.5,0-0.9,0.2-1.2,0.6 c-0.3,0.5-0.7,1-1.1,1.5c-0.1,0.2-0.1,0.3,0.1,0.3c0.2,0,0.4,0,0.6,0c1.6,0,3.1,0,4.7,0c0.1,0,0.1,0,0.3,0 c-0.2,0.3-0.4,0.6-0.6,0.8c0,0-0.1,0-0.1,0c-1.9,0-3.8,0-5.6,0c-0.4,0-0.7-0.1-1.1-0.2c-0.4-0.1-0.6-0.5-0.3-0.9 c0.7-0.9,1.2-1.8,1.9-2.7c0.2-0.2,0.5-0.3,0.8-0.4c0.3-0.1,0.5-0.1,0.8-0.1c1.9,0,3.9,0,5.8,0C31.4,56.6,31.5,56.6,31.8,56.6z"></path> </g> <g> <path class="st1" d="M32.5,57.6c0.2-0.3,0.4-0.6,0.6-0.8c0,0,0.1,0,0.2,0c1.8,0,3.6,0,5.4,0c0.5,0,1,0.1,1.4,0.4 c0.3,0.2,0.3,0.4,0.1,0.7c-0.6,0.8-1.1,1.6-1.7,2.4c-0.2,0.3-0.5,0.5-0.9,0.6C37.1,61,36.4,61,35.8,61c-1.1,0-2.3,0-3.4,0 c-0.5,0-0.9,0-1.4-0.2c-0.3-0.1-0.4-0.4-0.2-0.7c0.3-0.4,0.6-0.8,0.9-1.2c0.2-0.3,0.5-0.4,0.8-0.4c1.7,0,3.3,0,5,0 c0.2,0,0.3-0.1,0.4-0.2c0.1-0.1,0.1-0.2,0.2-0.3c0-0.1,0.1-0.2,0.1-0.2c0-0.1-0.1-0.1-0.2-0.1c0,0-0.1,0-0.2,0c-1.7,0-3.3,0-5,0 C32.7,57.6,32.6,57.6,32.5,57.6z M37.2,59.3c-0.3,0-0.5,0-0.8,0c-1,0-1.9,0-2.9,0c-0.1,0-0.2,0-0.2,0.1c-0.1,0.1-0.2,0.3-0.3,0.4 c-0.1,0.1-0.1,0.2,0.1,0.2c0.2,0,0.4,0.1,0.5,0.1c0.8,0,1.6,0,2.4,0c0.2,0,0.3-0.1,0.5-0.1C36.8,59.9,36.9,59.6,37.2,59.3z"></path> <path class="st1" d="M53.7,55.1c-0.4,0.6-0.8,1.1-1.2,1.7c0.1,0,0.2,0,0.3,0c1,0,2,0,3,0c0.5,0,0.9,0,1.3,0.2 c0.1,0.1,0.3,0.1,0.4,0.2c0.2,0.1,0.2,0.3,0.1,0.5c-0.7,1-1.4,2.1-2.2,3.1c0,0-0.1,0.1-0.1,0.1c-0.6,0-1.3,0-1.9,0c0,0,0,0,0,0 c0.3-0.4,0.6-0.9,0.9-1.3c0.4-0.6,0.8-1.1,1.3-1.7c0,0,0-0.1,0-0.1c-0.1-0.1-0.2-0.1-0.3-0.1c-0.2,0-0.4,0-0.6,0 c-0.6,0-1.3,0-1.9,0c-0.6,0-1,0.2-1.3,0.7c-0.6,0.9-1.2,1.7-1.8,2.6c0,0-0.1,0.1-0.2,0.1c-0.6,0-1.2,0-1.9,0 c0.1-0.2,0.2-0.3,0.4-0.5c0.5-0.7,1-1.4,1.5-2c0.8-1.1,1.5-2.2,2.3-3.2c0,0,0.1-0.1,0.2-0.1C52.4,55.1,53,55.1,53.7,55.1z"></path> <path class="st1" d="M42.6,58.4c0.6,0,1.1,0,1.7,0c1,0,2,0,3.1,0c0.1,0,0.2,0,0.3,0.1c0.2,0.1,0.3,0.3,0.2,0.5 c-0.1,0.3-0.3,0.5-0.5,0.8c-0.4,0.8-1,1-1.8,1.1c-0.4,0-0.9,0.1-1.3,0.1c-1.4,0-2.9,0-4.3,0c-0.4,0-0.7,0-1.1-0.1 c0.1-0.2,0.3-0.3,0.4-0.4c0.2-0.3,0.5-0.4,0.9-0.4c1.4,0,2.9,0,4.3,0c0.8,0,1-0.2,1.4-0.8c-0.2,0-0.3,0-0.5,0c-1.5,0-3,0-4.4,0 c-0.3,0-0.5-0.3-0.4-0.5c0.3-0.5,0.7-1.1,1.1-1.6c0.2-0.3,0.6-0.4,0.9-0.4c1.5,0,3.1,0,4.6-0.1c0.7,0,1.4,0,2.1,0 c0.1,0,0.1,0,0.2,0c-0.2,0.3-0.4,0.6-0.5,0.8c0,0-0.2,0-0.2,0c-1.6,0-3.2,0-4.8,0c-0.5,0-0.9,0.2-1.2,0.6c0,0,0,0.1-0.1,0.1 C42.7,58.4,42.7,58.4,42.6,58.4z"></path> <path class="st1" d="M32.2,56.8c-0.2,0.3-0.3,0.5-0.4,0.7c-0.1,0.1-0.2,0.2-0.3,0.2c-1.6,0-3.2,0-4.8,0c-0.5,0-0.9,0.2-1.2,0.6 c-0.3,0.5-0.7,1-1.1,1.5c-0.1,0.2-0.1,0.3,0.1,0.3c0.2,0,0.4,0,0.6,0c1.6,0,3.1,0,4.7,0c0.1,0,0.1,0,0.3,0 c-0.2,0.3-0.4,0.6-0.6,0.8c0,0-0.1,0-0.1,0c-1.9,0-3.8,0-5.6,0c-0.4,0-0.7-0.1-1.1-0.2c-0.4-0.1-0.6-0.5-0.3-0.9 c0.7-0.9,1.2-1.8,1.9-2.7c0.2-0.2,0.5-0.3,0.8-0.4c0.3-0.1,0.5-0.1,0.8-0.1c1.9,0,3.9,0,5.8,0C31.8,56.8,31.9,56.8,32.2,56.8z"></path> </g> </g> </svg> 