<?xml version="1.0" encoding="UTF-8"?> <svg xmlns="http://www.w3.org/2000/svg" xmlns:xlink="http://www.w3.org/1999/xlink" version="1.1" id="Layer_1" x="0px" y="0px" width="80px" height="80px" viewBox="0 0 80 80" style="enable-background:new 0 0 80 80;" xml:space="preserve"> <style type="text/css"> .st0{fill:#0066AC;} .st1{fill:#F36E35;} .st2{fill:#2D2F7C;} .st3{fill:#EC1F27;} </style> <path class="st0" d="M29.6,20.4c-4.6,0.3-8.4,1.6-11,3.7c-0.5,0.4-1.3,1.2-1.7,1.8c-1.1,1.5-1.7,3.2-1.8,5.1l0,0.6h2.5 c4.5,0,40.8-0.2,41-0.2c1.3-0.1,1.6-0.1,2.2-0.2c2.1-0.3,3.3-1.1,3.6-2.4c0-0.1,0.1-0.7,0.1-1.2c0.1-1.2,0.3-2.7,0.5-3.7 c0-0.1,0-0.1-0.1-0.1c-0.2,0-0.6,0.3-1.1,0.7c-1.6,1.4-2.4,1.8-3.9,2c-1,0.1-1.6,0-7.3-1.8c-2.4-0.7-4.2-1.3-5.6-1.6 c-5.4-1.5-9.6-2.3-13.3-2.5C32.8,20.4,30.5,20.4,29.6,20.4z"></path> <path class="st1" d="M45,48.5c-10,0-19.8,0.1-21.8,0.1c-4,0-4.3,0-5.4,0.3c-1.5,0.4-2.4,1.2-2.7,2.3c-0.1,0.3-0.1,0.6-0.1,2 c0,0.9,0,2,0,2.4l0,0.7l0.2,0c0.3,0,0.6-0.2,1.2-0.6c1-0.8,1.6-1.1,2.4-1.3c1-0.3,2.1-0.4,3.2-0.1c0.7,0.2,1.7,0.5,3.5,1.1 c5.4,1.7,8.4,2.6,12.1,3.3c5,1,10.1,1.3,14,0.9c6.2-0.6,10.8-3.2,12.6-7c0.5-1.1,0.9-2.6,0.9-3.8v-0.3l-0.9,0 C63.6,48.4,55,48.4,45,48.5z"></path> <g> <path class="st2" d="M15.1,35.8c0,0.2,0,0.6-0.1,0.9l0,0.4h0.1c0.1,0,0.1,0,0.2-0.3c0.1-0.3,0.1-0.4,0.3-0.6 c0.3-0.3,0.5-0.4,1.6-0.4h0.8l0,3.1c0,2.8,0,3.1-0.1,3.2c-0.1,0.2-0.4,0.3-0.8,0.3c-0.3,0-0.3,0-0.3,0.1c0,0.1,0.1,0.1,1.9,0.1 c1.8,0,1.9,0,1.9-0.1c0-0.1-0.1-0.1-0.3-0.1c-0.4,0-0.6-0.1-0.7-0.3c-0.1-0.1-0.1-0.2-0.1-3.2l0-3.1l0.9,0c1,0,1.1,0.1,1.5,0.3 c0.2,0.2,0.3,0.4,0.4,0.7c0,0.2,0,0.2,0.2,0.2c0.1,0,0.1,0,0.1-0.1c0-0.1,0-0.5-0.1-0.9l0-0.7h-3.6h-3.6L15.1,35.8z"></path> <path class="st2" d="M44.3,35.4c0,0.1,0.1,0.1,0.3,0.1c0.4,0,0.7,0.2,0.8,0.4c0.1,0.2,0.1,0.3,0.1,2.8c0,3,0,3.3-0.2,3.5 c-0.2,0.2-0.4,0.2-0.8,0.2c-0.2,0-0.3,0-0.3,0.1c0,0.1,0,0.1,1.9,0.1c1.8,0,1.9,0,1.9-0.1c0-0.1,0-0.1-0.3-0.1 c-0.4,0-0.7-0.1-0.9-0.4c-0.1-0.2-0.1-0.3-0.1-1.5c0-0.7,0-1.3,0-1.3c0,0,0.2,0,0.5,0c0.6,0.1,1.5,0.1,1.9,0 c0.8-0.2,1.3-0.5,1.6-1.1c0.1-0.3,0.2-0.4,0.2-0.8c0-0.4,0-0.5-0.1-0.7c-0.2-0.5-0.9-1-1.6-1.2c-0.5-0.1-1.3-0.2-3.1-0.2 C44.4,35.3,44.3,35.4,44.3,35.4z M48.1,35.9c0.4,0.1,0.7,0.2,0.9,0.5c0.6,0.6,0.6,1.6,0,2.2c-0.4,0.4-0.9,0.5-1.7,0.4l-0.5-0.1 v-1.5v-1.5l0.3-0.1C47.5,35.8,47.7,35.8,48.1,35.9z"></path> <path class="st3" d="M34.5,36.7c0,0,0.2,0.6,0.5,1.3s0.5,1.3,0.5,1.3c0,0,0.1,0.1,0.2,0.1h0.2l0.3-1.3c0.2-0.7,0.3-1.4,0.3-1.4 c0-0.1-0.2-0.1-1-0.1C34.7,36.6,34.5,36.7,34.5,36.7z"></path> <path class="st3" d="M37.7,37.3c-0.5,0.2-0.9,0.3-0.9,0.3c0,0,0,0.1,0,0.2c0.1,0.1,0.1,0.1,0.2,0.1c0.1,0,0.2,0,0.3,0 c0.2,0,0.2,0,0.3,0.1c0.1,0.1,0.1,0.2,0.1,2c0,1.8,0,1.9-0.1,2.1c-0.1,0.2-0.3,0.3-0.6,0.3c-0.2,0-0.2,0-0.2,0.1v0.1h1.5H40v-0.1 c0-0.1,0-0.1-0.3-0.2c-0.3,0-0.5-0.1-0.6-0.3c0-0.1-0.1-0.6-0.1-1.8v-1.7l0.2-0.2c0.6-0.6,1.5-0.7,1.8-0.3c0.2,0.3,0.3,0.4,0.3,2.2 c0,1.8,0,1.9-0.2,2.1c-0.1,0-0.3,0.1-0.4,0.1c-0.3,0-0.3,0-0.3,0.2v0.1h1.5h1.5v-0.1c0-0.1,0-0.1-0.3-0.2c-0.2,0-0.3-0.1-0.4-0.1 c-0.2-0.2-0.2-0.3-0.2-2c0-0.9,0-1.7,0-1.9C42.3,37.5,41.8,37,41,37c-0.6,0-1.1,0.2-1.7,0.8L39,38v-0.5v-0.5l-0.2,0 C38.7,36.9,38.2,37.1,37.7,37.3z"></path> <path class="st2" d="M24.2,37.6c-1,0.1-1.7,0.6-1.7,1.2c0,0.2,0,0.3,0.1,0.4c0.2,0.2,0.6,0.2,0.8,0c0.1-0.1,0.1-0.1,0.2-0.5 c0-0.4,0-0.4,0.2-0.6c0.2-0.2,0.6-0.3,1-0.2c0.6,0.1,0.8,0.4,0.8,1.1l0,0.3l-0.4,0.1c-0.6,0.2-1.5,0.5-1.9,0.7 c-0.4,0.2-0.9,0.6-0.9,0.9c-0.2,0.6,0.1,1.2,0.7,1.5c0.2,0.1,0.3,0.1,0.7,0.1c0.5,0,0.7-0.1,1.4-0.5c0.2-0.1,0.4-0.2,0.4-0.2 s0,0.1,0,0.2c0,0.4,0.3,0.6,0.7,0.6c0.4,0,0.7-0.2,1-0.5c0.3-0.2,0.3-0.3,0.3-0.4v-0.2l-0.3,0.2c-0.3,0.2-0.4,0.3-0.6,0.1 c-0.1-0.1-0.1-0.2-0.1-1.8l0-1.7l-0.1-0.2c-0.1-0.2-0.2-0.3-0.4-0.4C25.8,37.7,25,37.5,24.2,37.6z M25.6,40.7v0.9l-0.3,0.2 c-0.8,0.5-1.4,0.5-1.8,0c-0.2-0.2-0.2-0.5-0.1-0.8c0.1-0.2,0.4-0.5,0.7-0.7c0.3-0.2,1.2-0.5,1.4-0.5C25.6,39.8,25.6,39.9,25.6,40.7 z"></path> <path class="st2" d="M31.3,37.6c-0.5,0.1-1,0.4-1.3,0.8l-0.2,0.3v-0.6v-0.6h-0.1c-0.1,0-1.9,0.6-1.9,0.6c0,0,0,0,0,0.1 c0,0.1,0.1,0.1,0.4,0.1c0.3,0,0.4,0,0.5,0.1c0.1,0.2,0.2,0.6,0.1,3.4c0,2.5,0,2.6-0.1,2.7c-0.1,0.2-0.4,0.3-0.7,0.3 c-0.2,0-0.3,0-0.3,0.1c0,0.1,0,0.1,1.6,0.1c1.5,0,1.6,0,1.6-0.1c0-0.1,0-0.1-0.2-0.1c-0.3,0-0.5-0.1-0.7-0.2 c-0.1-0.1-0.1-0.1-0.1-1.2l0-1l0.3,0.2c0.3,0.2,0.4,0.2,0.9,0.2c0.3,0,0.7,0,0.8,0c0.9-0.2,1.7-1,2-2c0.2-0.6,0.1-1.5-0.2-2 c-0.2-0.3-0.6-0.8-0.9-0.9C32.3,37.6,31.8,37.5,31.3,37.6z M31.7,38.5c0.6,0.3,1,1.1,1,2c0,0.7-0.2,1.2-0.6,1.6 c-0.5,0.5-1.6,0.5-2.1-0.1c-0.1-0.1-0.2-0.3-0.2-0.4c0-0.1-0.1-0.7-0.1-1.4v-1.2l0.3-0.3c0.4-0.3,0.7-0.4,1.1-0.4 C31.4,38.4,31.6,38.5,31.7,38.5z"></path> <path class="st2" d="M53.8,37.6c-1,0.1-1.8,0.7-1.7,1.3c0.1,0.4,0.7,0.6,0.9,0.3c0.1-0.1,0.1-0.2,0.1-0.5c0-0.4,0.1-0.6,0.3-0.7 c0.3-0.1,0.5-0.2,0.9-0.1c0.5,0.1,0.8,0.5,0.8,1.2v0.2l-0.8,0.3c-1.4,0.5-2.2,0.9-2.4,1.4c-0.1,0.3-0.1,0.8,0,1 c0.1,0.3,0.4,0.5,0.7,0.6c0.3,0.1,0.9,0.1,1.2,0c0.1,0,0.5-0.2,0.7-0.4l0.5-0.3l0.1,0.2c0.1,0.4,0.3,0.5,0.7,0.5 c0.3,0,0.6-0.1,1-0.5c0.3-0.2,0.3-0.3,0.3-0.4c0-0.1,0-0.2,0-0.2s-0.1,0.1-0.3,0.2c-0.3,0.2-0.5,0.3-0.6,0.1 c-0.1-0.1-0.1-0.3-0.1-1.8c0-1.9,0-1.8-0.4-2.1c-0.2-0.2-0.6-0.3-1.2-0.4c-0.3,0-0.5,0-0.5,0C54.2,37.6,54,37.6,53.8,37.6z M55.1,41.7c-0.2,0.2-0.8,0.4-1.1,0.5c-0.3,0-0.5,0-0.8-0.3c-0.3-0.4-0.3-0.8,0-1.2c0.2-0.3,0.5-0.4,1.3-0.7l0.6-0.2l0,0.9 C55.2,41.6,55.2,41.6,55.1,41.7z"></path> <path class="st2" d="M57.4,37.8c0,0.1,0.1,0.1,0.2,0.1c0.4,0.1,0.6,0.4,1.9,2.6l1.1,1.9l-0.3,0.6c-0.3,0.7-0.6,0.9-0.9,1 c-0.1,0-0.3,0-0.5-0.1c-0.6-0.2-1-0.1-1.2,0.1c-0.1,0.2-0.1,0.4,0.1,0.6c0.5,0.5,1.8,0.2,2.4-0.7c0.1-0.2,0.8-1.5,1.5-3 c0.9-1.8,1.4-2.8,1.5-2.9c0.1-0.1,0.2-0.2,0.4-0.2c0.2,0,0.2-0.1,0.2-0.1c0-0.1-0.1-0.1-1-0.1c-0.9,0-1,0-1,0.1 c0,0.1,0,0.1,0.2,0.1c0.1,0,0.2,0,0.3,0.1c0.1,0.1,0.1,0.1,0.1,0.3c0,0.2-1.4,3-1.4,3c0,0-1.6-2.6-1.6-2.8C59.4,38.2,59.6,38,60,38 c0.2,0,0.2,0,0.2-0.1c0-0.1,0-0.1-1.4-0.1C57.5,37.8,57.4,37.8,57.4,37.8z"></path> </g> </svg> 